HIERARCHY
ROOT hips
{
	OFFSET -0.003675 0.299928 -0.021708
	CHANNELS 6 Xposition Yposition Zposition Xrotation Yrotation Zrotation
	JOINT LowerBack
	{
		OFFSET 0.000919 0.177588 0.009275
		CHANNELS 3 Xrotation Yrotation Zrotation
		JOINT spine
		{
			OFFSET 0.000919 0.177588 0.009275
			CHANNELS 3 Xrotation Yrotation Zrotation
			JOINT chest
			{
				OFFSET 0.000456 0.100015 0.004638
				CHANNELS 3 Xrotation Yrotation Zrotation
				JOINT neck
				{
					OFFSET 0.000456 0.100015 0.004638
					CHANNELS 3 Xrotation Yrotation Zrotation
					JOINT head
					{
						OFFSET 0.000924 0.155147 0.009274
						CHANNELS 6 Xposition Yposition Zposition Xrotation Yrotation Zrotation
						End Site
						{
							OFFSET 0.000000 0.153400 0.000000
						}
					}
				}
				JOINT shoulder.L
				{
					OFFSET 0.019937 0.078966 0.057518
					CHANNELS 6 Xposition Yposition Zposition Yrotation Xrotation Zrotation
					JOINT upper_arm.L
					{
						OFFSET 0.177024 -0.020465 -0.095062
						CHANNELS 6 Xposition Yposition Zposition Xrotation Yrotation Zrotation
						JOINT forearm.L
						{
							OFFSET 0.247100 -0.135500 -0.061800
							CHANNELS 3 Xrotation Yrotation Zrotation
							JOINT hand.L
							{
								OFFSET 0.217000 -0.143000 0.039300
								CHANNELS 3 Xrotation Yrotation Zrotation
								JOINT palm.01.L
								{
									OFFSET 0.021770 -0.038291 0.012954
									CHANNELS 6 Xposition Yposition Zposition Yrotation Xrotation Zrotation
									JOINT f_index.01.L
									{
										OFFSET 0.053215 -0.044137 0.008236
										CHANNELS 3 Xrotation Yrotation Zrotation
										JOINT f_index.02.L
										{
											OFFSET 0.036108 -0.024723 -0.010656
											CHANNELS 3 Xrotation Yrotation Zrotation
											JOINT f_index.03.L
											{
												OFFSET 0.021342 -0.014948 -0.010846
												CHANNELS 3 Xrotation Yrotation Zrotation
												End Site
												{
													OFFSET 0.015600 -0.009860 -0.013421
												}
											}
										}
									}
									JOINT thumb.01.L
									{
										OFFSET -0.009090 -0.002348 -0.024223
										CHANNELS 6 Xposition Yposition Zposition Xrotation Yrotation Zrotation
										JOINT thumb.02.L
										{
											OFFSET 0.019713 -0.035076 -0.011120
											CHANNELS 3 Xrotation Yrotation Zrotation
											JOINT thumb.03.L
											{
												OFFSET 0.024877 -0.021748 -0.005176
												CHANNELS 3 Xrotation Yrotation Zrotation
												End Site
												{
													OFFSET 0.016125 -0.013029 -0.001569
												}
											}
										}
									}
								}
								JOINT palm.02.L
								{
									OFFSET 0.032823 -0.025104 0.012281
									CHANNELS 6 Xposition Yposition Zposition Yrotation Xrotation Zrotation
									JOINT f_middle.01.L
									{
										OFFSET 0.055723 -0.038469 0.008037
										CHANNELS 3 Xrotation Yrotation Zrotation
										JOINT f_middle.02.L
										{
											OFFSET 0.038167 -0.027473 -0.015582
											CHANNELS 3 Xrotation Yrotation Zrotation
											JOINT f_middle.03.L
											{
												OFFSET 0.021707 -0.016587 -0.017037
												CHANNELS 3 Xrotation Yrotation Zrotation
												End Site
												{
													OFFSET 0.014112 -0.010584 -0.014294
												}
											}
										}
									}
								}
								JOINT palm.03.L
								{
									OFFSET 0.039230 -0.011402 0.008390
									CHANNELS 6 Xposition Yposition Zposition Yrotation Xrotation Zrotation
									JOINT f_ring.01.L
									{
										OFFSET 0.061796 -0.031470 0.007910
										CHANNELS 3 Xrotation Yrotation Zrotation
										JOINT f_ring.02.L
										{
											OFFSET 0.033092 -0.023401 -0.019127
											CHANNELS 3 Xrotation Yrotation Zrotation
											JOINT f_ring.03.L
											{
												OFFSET 0.021392 -0.015362 -0.017824
												CHANNELS 3 Xrotation Yrotation Zrotation
												End Site
												{
													OFFSET 0.008670 -0.007297 -0.014686
												}
											}
										}
									}
								}
								JOINT palm.04.L
								{
									OFFSET 0.043417 0.002450 0.002889
									CHANNELS 6 Xposition Yposition Zposition Yrotation Xrotation Zrotation
									JOINT f_pinky.01.L
									{
										OFFSET 0.069986 -0.026156 0.003627
										CHANNELS 3 Xrotation Yrotation Zrotation
										JOINT f_pinky.02.L
										{
											OFFSET 0.018520 -0.012813 -0.016429
											CHANNELS 3 Xrotation Yrotation Zrotation
											JOINT f_pinky.03.L
											{
												OFFSET 0.013822 -0.009796 -0.014947
												CHANNELS 3 Xrotation Yrotation Zrotation
												End Site
												{
													OFFSET 0.007238 -0.006103 -0.011657
												}
											}
										}
									}
								}
							}
						}
					}
				}
				JOINT shoulder.R
				{
					OFFSET -0.016662 0.078957 0.057696
					CHANNELS 6 Xposition Yposition Zposition Yrotation Xrotation Zrotation
					JOINT upper_arm.R
					{
						OFFSET -0.176972 -0.020537 -0.095144
						CHANNELS 6 Xposition Yposition Zposition Xrotation Yrotation Zrotation
						JOINT forearm.R
						{
							OFFSET -0.247100 -0.135500 -0.061800
							CHANNELS 3 Xrotation Yrotation Zrotation
							JOINT hand.R
							{
								OFFSET -0.217000 -0.143000 0.039300
								CHANNELS 3 Xrotation Yrotation Zrotation
								JOINT palm.01.R
								{
									OFFSET -0.021773 -0.038278 0.012988
									CHANNELS 6 Xposition Yposition Zposition Yrotation Xrotation Zrotation
									JOINT f_index.01.R
									{
										OFFSET -0.053212 -0.044139 0.008249
										CHANNELS 3 Xrotation Yrotation Zrotation
										JOINT f_index.02.R
										{
											OFFSET -0.036049 -0.024835 -0.010634
											CHANNELS 3 Xrotation Yrotation Zrotation
											JOINT f_index.03.R
											{
												OFFSET -0.021371 -0.014881 -0.010866
												CHANNELS 3 Xrotation Yrotation Zrotation
												End Site
												{
													OFFSET -0.015584 -0.009883 -0.013422
												}
											}
										}
									}
									JOINT thumb.01.R
									{
										OFFSET 0.009113 -0.002381 -0.024211
										CHANNELS 6 Xposition Yposition Zposition Xrotation Yrotation Zrotation
										JOINT thumb.02.R
										{
											OFFSET -0.019694 -0.035097 -0.011088
											CHANNELS 3 Xrotation Yrotation Zrotation
											JOINT thumb.03.R
											{
												OFFSET -0.024867 -0.021762 -0.005168
												CHANNELS 3 Xrotation Yrotation Zrotation
												End Site
												{
													OFFSET -0.016120 -0.013036 -0.001565
												}
											}
										}
									}
								}
								JOINT palm.02.R
								{
									OFFSET -0.032828 -0.025095 0.012286
									CHANNELS 6 Xposition Yposition Zposition Yrotation Xrotation Zrotation
									JOINT f_middle.01.R
									{
										OFFSET -0.055721 -0.038472 0.008040
										CHANNELS 3 Xrotation Yrotation Zrotation
										JOINT f_middle.02.R
										{
											OFFSET -0.038101 -0.027593 -0.015557
											CHANNELS 3 Xrotation Yrotation Zrotation
											JOINT f_middle.03.R
											{
												OFFSET -0.021730 -0.016530 -0.017054
												CHANNELS 3 Xrotation Yrotation Zrotation
												End Site
												{
													OFFSET -0.014096 -0.010608 -0.014293
												}
											}
										}
									}
								}
								JOINT palm.03.R
								{
									OFFSET -0.039192 -0.011488 0.008390
									CHANNELS 6 Xposition Yposition Zposition Yrotation Xrotation Zrotation
									JOINT f_ring.01.R
									{
										OFFSET -0.061839 -0.031387 0.007876
										CHANNELS 3 Xrotation Yrotation Zrotation
										JOINT f_ring.02.R
										{
											OFFSET -0.033068 -0.023437 -0.019125
											CHANNELS 3 Xrotation Yrotation Zrotation
											JOINT f_ring.03.R
											{
												OFFSET -0.021371 -0.015393 -0.017822
												CHANNELS 3 Xrotation Yrotation Zrotation
												End Site
												{
													OFFSET -0.008654 -0.007321 -0.014684
												}
											}
										}
									}
								}
								JOINT palm.04.R
								{
									OFFSET -0.043421 0.002443 0.002845
									CHANNELS 6 Xposition Yposition Zposition Yrotation Xrotation Zrotation
									JOINT f_pinky.01.R
									{
										OFFSET -0.069983 -0.026169 0.003599
										CHANNELS 3 Xrotation Yrotation Zrotation
										JOINT f_pinky.02.R
										{
											OFFSET -0.018501 -0.012842 -0.016428
											CHANNELS 3 Xrotation Yrotation Zrotation
											JOINT f_pinky.03.R
											{
												OFFSET -0.013806 -0.009821 -0.014946
												CHANNELS 3 Xrotation Yrotation Zrotation
												End Site
												{
													OFFSET -0.007226 -0.006121 -0.011655
												}
											}
										}
									}
								}
							}
						}
					}
				}
			}
		}
	}
	JOINT pelvis.L
	{
		OFFSET 0.000000 0.000000 0.000000
		CHANNELS 6 Xposition Yposition Zposition Xrotation Yrotation Zrotation
		JOINT thigh.L
		{
			OFFSET 0.101675 0.001054 -0.000000
			CHANNELS 3 Xrotation Yrotation Zrotation
			JOINT shin.L
			{
				OFFSET 0.000000 -0.534800 0.041000
				CHANNELS 3 Xrotation Yrotation Zrotation
				JOINT foot.L
				{
					OFFSET 0.000000 -0.452000 -0.044800
					CHANNELS 3 Xrotation Yrotation Zrotation
					JOINT toe.L
					{
						OFFSET -0.000000 -0.068500 0.109600
						CHANNELS 3 Xrotation Yrotation Zrotation
						End Site
						{
							OFFSET -0.000000 0.000000 0.067200
						}
					}
				}
				JOINT heel.L
				{
					OFFSET 0.000000 -0.452000 -0.044800
					CHANNELS 3 Xrotation Yrotation Zrotation
					JOINT heel.02.L
					{
						OFFSET -0.038000 -0.085200 0.016200
						CHANNELS 6 Xposition Yposition Zposition Xrotation Yrotation Zrotation
						End Site
						{
							OFFSET 0.080000 -0.000000 0.000000
						}
					}
				}
			}
		}
	}
	JOINT pelvis.R
	{
		OFFSET 0.000000 0.000000 0.000000
		CHANNELS 6 Xposition Yposition Zposition Xrotation Yrotation Zrotation
		JOINT thigh.R
		{
			OFFSET -0.094325 0.001054 0.000000
			CHANNELS 3 Xrotation Yrotation Zrotation
			JOINT shin.R
			{
				OFFSET 0.000000 -0.534800 0.041000
				CHANNELS 3 Xrotation Yrotation Zrotation
				JOINT foot.R
				{
					OFFSET 0.000000 -0.452000 -0.044800
					CHANNELS 3 Xrotation Yrotation Zrotation
					JOINT toe.R
					{
						OFFSET -0.000000 -0.068500 0.109600
						CHANNELS 3 Xrotation Yrotation Zrotation
						End Site
						{
							OFFSET -0.000000 0.000000 0.067200
						}
					}
				}
				JOINT heel.R
				{
					OFFSET 0.000000 -0.452000 -0.044800
					CHANNELS 3 Xrotation Yrotation Zrotation
					JOINT heel.02.R
					{
						OFFSET 0.038000 -0.085200 0.016200
						CHANNELS 6 Xposition Yposition Zposition Xrotation Yrotation Zrotation
						End Site
						{
							OFFSET -0.080000 0.000000 -0.000000
						}
					}
				}
			}
		}
	}
}
MOTION
Frames: 4
Frame Time: 0.041667
-0.003675 0.299928 -0.021708 0.000000 -0.000000 0.000000 -0.000001 0.000000 0.000000 -0.000000 0.000000 0.000000 -0.000000 0.000000 0.000000 -0.000000 -0.000000 -0.000000 0.000924 0.155147 0.009274 -0.000001 -0.000000 -0.000000 0.019937 0.078966 0.057518 0.000001 0.000001 -0.000005 0.177024 -0.020465 -0.095062 -0.000006 -0.000003 0.000015 -0.000009 -0.000004 -0.000009 -0.000000 0.000000 0.000001 0.021770 -0.038291 0.012954 0.000001 -0.000001 0.000001 -0.000001 -0.000001 -0.000002 -0.000001 -0.000000 0.000007 -0.000000 0.000000 0.000003 -0.009090 -0.002348 -0.024224 -0.000002 0.000001 0.000001 0.000001 -0.000001 0.000001 -0.000000 0.000000 -0.000001 0.032823 -0.025104 0.012281 0.000000 -0.000000 0.000000 0.000001 0.000004 -0.000003 -0.000001 -0.000000 -0.000000 -0.000001 -0.000003 0.000003 0.039230 -0.011402 0.008390 -0.000000 -0.000000 0.000008 0.000001 0.000001 -0.000000 -0.000001 0.000003 -0.000001 0.000002 0.000002 -0.000000 0.043417 0.002450 0.002889 -0.000000 0.000001 0.000002 -0.000001 -0.000003 0.000001 -0.000000 0.000003 -0.000000 -0.000000 -0.000003 0.000001 -0.016662 0.078956 0.057696 -0.000001 0.000002 0.000011 -0.176972 -0.020537 -0.095144 0.000001 -0.000003 -0.000005 -0.000006 0.000005 -0.000014 -0.000001 -0.000000 0.000000 -0.021773 -0.038278 0.012988 0.000000 -0.000001 -0.000003 -0.000001 0.000001 -0.000003 -0.000001 -0.000000 0.000001 0.000001 0.000002 0.000007 0.009113 -0.002381 -0.024211 0.000002 -0.000001 0.000004 -0.000000 0.000001 0.000002 0.000000 0.000000 -0.000003 -0.032828 -0.025095 0.012286 0.000001 -0.000001 -0.000001 -0.000001 0.000003 -0.000003 -0.000002 0.000004 -0.000001 0.000001 -0.000002 -0.000000 -0.039192 -0.011488 0.008390 0.000000 0.000000 0.000001 -0.000000 0.000003 -0.000003 -0.000001 0.000001 0.000002 -0.000001 0.000000 -0.000003 -0.043421 0.002443 0.002844 -0.000000 -0.000001 0.000000 -0.000007 0.000003 -0.000002 -0.000003 -0.000000 -0.000000 0.000001 -0.000000 0.000001 -0.000000 0.000000 -0.000000 -0.000001 -0.000000 0.000001 0.000009 -0.000202 0.000014 -0.000026 0.000202 -0.000015 0.000000 -0.000000 -0.000000 0.000002 -0.000000 -0.000000 0.000000 0.000000 -0.000000 -0.038000 -0.085200 0.016200 0.000000 0.000000 0.000000 0.000000 -0.000000 -0.000000 -0.000001 0.000000 -0.000004 0.000008 -0.000013 0.000005 -0.000012 0.000013 -0.000001 -0.000003 -0.000000 -0.000000 0.000000 -0.000000 -0.000000 0.000002 -0.000000 -0.000000 0.038000 -0.085200 0.016200 0.000002 -0.000000 0.000000 
-0.004255 0.270387 -0.021124 36.055186 78.470022 -32.997259 -0.000001 0.000002 -0.000000 -0.000000 0.000000 0.000000 0.000000 -0.000002 0.000000 -0.000000 -0.000001 0.000001 0.000924 0.155148 0.009274 0.139410 0.004377 5.145734 0.019937 0.078966 0.057518 5.928625 3.263306 25.470213 0.177024 -0.020465 -0.095062 -9.593107 11.669925 -61.957739 0.347718 -0.902981 -1.486443 -0.000002 -0.000001 0.000002 0.021770 -0.038291 0.012954 -0.000001 -0.000000 -0.000004 -0.000001 -0.000001 -0.000000 0.000001 0.000001 0.000008 -0.000000 0.000002 0.000002 -0.009090 -0.002348 -0.024223 0.000002 -0.000001 -0.000003 0.000002 0.000002 -0.000002 -0.000000 0.000001 -0.000002 0.032823 -0.025104 0.012281 -0.000001 -0.000000 -0.000001 0.000002 0.000001 -0.000000 -0.000001 -0.000003 0.000001 -0.000004 -0.000002 0.000002 0.039230 -0.011402 0.008390 0.000001 -0.000000 0.000004 -0.000000 0.000001 -0.000002 0.000000 0.000001 0.000001 0.000002 -0.000001 0.000003 0.043417 0.002450 0.002889 -0.000000 0.000001 -0.000003 -0.000002 -0.000005 -0.000000 -0.000000 0.000003 -0.000000 0.000001 0.000000 -0.000003 -0.016662 0.078956 0.057696 4.853415 2.740317 -27.824300 -0.176972 -0.020537 -0.095144 -7.516300 -12.271105 63.983532 1.740739 0.296470 7.869485 -0.000001 0.000001 -0.000002 -0.021773 -0.038278 0.012988 -0.000000 0.000001 -0.000003 -0.000002 0.000003 -0.000004 -0.000003 -0.000001 -0.000010 0.000000 -0.000002 0.000005 0.009114 -0.002381 -0.024212 -0.000000 -0.000002 -0.000003 0.000002 -0.000002 -0.000005 -0.000000 -0.000001 -0.000001 -0.032828 -0.025095 0.012286 0.000001 0.000001 0.000001 -0.000004 0.000002 0.000001 -0.000003 0.000002 -0.000001 -0.000003 0.000004 -0.000003 -0.039192 -0.011488 0.008390 0.000001 0.000003 -0.000000 -0.000000 0.000002 -0.000003 -0.000001 -0.000003 -0.000002 0.000000 0.000000 -0.000003 -0.043421 0.002443 0.002845 -0.000001 0.000001 0.000004 -0.000003 0.000002 -0.000001 -0.000000 -0.000006 0.000002 0.000000 -0.000004 -0.000001 -0.000000 0.000000 -0.000000 -1.530226 -0.170177 1.134620 -16.937945 -0.056445 0.602133 29.948675 -0.052334 0.530147 0.000003 -0.000000 0.000001 -0.000002 0.000000 0.000000 0.000005 0.000000 -0.000001 -0.038000 -0.085200 0.016200 -0.000000 0.000000 -0.000000 -0.000000 0.000000 -0.000000 -1.502455 -0.169340 2.368899 -14.237265 0.505137 5.177049 22.038393 -0.415080 4.192368 0.000002 -0.000002 0.000003 0.000001 0.000000 0.000001 0.000005 0.000000 0.000001 0.038000 -0.085200 0.016200 -0.000001 0.000000 0.000002 
-0.003990 0.267911 -0.021218 41.710312 78.411938 -38.235416 -0.000001 0.000001 -0.000000 0.000000 -0.000000 0.000001 0.000000 -0.000000 -0.000000 0.000000 -0.000000 -0.000000 0.000924 0.155148 0.009274 0.157472 0.004735 4.464364 0.019937 0.078966 0.057518 5.808623 3.130712 25.713588 0.177024 -0.020465 -0.095062 -9.830392 11.802312 -62.560168 0.089507 -1.483793 -2.967999 0.000001 -0.000000 -0.000002 0.021770 -0.038291 0.012954 0.000000 -0.000000 -0.000002 -0.000002 -0.000000 -0.000000 -0.000000 0.000001 0.000008 0.000002 0.000000 -0.000001 -0.009090 -0.002348 -0.024223 -0.000001 0.000000 0.000001 -0.000000 -0.000000 0.000005 0.000000 0.000001 -0.000008 0.032823 -0.025104 0.012281 -0.000000 0.000001 0.000007 -0.000001 0.000000 -0.000002 -0.000003 -0.000002 -0.000000 -0.000001 0.000002 -0.000003 0.039230 -0.011402 0.008390 0.000000 -0.000001 0.000004 0.000001 0.000003 0.000003 0.000001 0.000001 -0.000001 -0.000000 -0.000004 0.000002 0.043417 0.002450 0.002889 -0.000000 0.000001 -0.000002 -0.000001 -0.000006 0.000003 0.000001 0.000001 0.000003 0.000001 0.000004 -0.000001 -0.016662 0.078957 0.057696 4.672965 2.569521 -27.866417 -0.176972 -0.020537 -0.095144 -7.081138 -12.343663 64.575566 2.345592 -0.369296 8.019666 0.000002 -0.000001 0.000004 -0.021773 -0.038278 0.012988 -0.000001 -0.000001 -0.000002 -0.000000 0.000002 -0.000003 0.000002 -0.000002 -0.000001 0.000000 0.000004 0.000005 0.009114 -0.002381 -0.024211 0.000002 0.000002 -0.000002 -0.000001 -0.000003 -0.000003 -0.000000 -0.000001 -0.000003 -0.032828 -0.025095 0.012286 0.000000 -0.000000 -0.000001 0.000000 0.000001 0.000001 -0.000002 0.000000 -0.000000 0.000001 0.000002 -0.000007 -0.039192 -0.011488 0.008390 -0.000001 0.000002 0.000001 0.000001 -0.000001 -0.000002 0.000001 -0.000006 -0.000002 0.000000 0.000001 -0.000004 -0.043421 0.002443 0.002845 -0.000000 0.000000 0.000002 -0.000005 0.000008 -0.000001 0.000003 0.000003 0.000002 0.000001 0.000002 0.000003 -0.000000 0.000000 0.000000 -1.566392 -0.172280 1.147185 -18.264312 -0.070541 0.506581 29.797475 -0.071590 0.724400 -0.000002 -0.000002 0.000000 0.000000 -0.000000 -0.000000 0.000002 -0.000001 0.000001 -0.038000 -0.085200 0.016200 -0.000001 -0.000001 -0.000000 -0.000000 -0.000000 0.000000 -1.537971 -0.171417 2.381443 -15.405254 0.459764 4.488865 21.580929 -0.377065 3.807841 0.000003 -0.000001 0.000000 0.000000 0.000000 -0.000001 0.000002 0.000000 0.000000 0.038000 -0.085200 0.016200 -0.000005 -0.000000 0.000000 
-0.005319 0.271916 -0.021112 46.704086 79.556951 -43.292229 -0.000000 0.000001 -0.000000 0.000000 0.000002 -0.000001 0.000000 0.000000 -0.000000 -0.000000 0.000000 -0.000000 0.000924 0.155147 0.009274 -0.942043 0.006757 5.418468 0.019937 0.078966 0.057518 4.926306 3.134071 25.592189 0.177024 -0.020466 -0.095062 -9.929565 11.705618 -62.149080 -0.092754 -1.564177 -1.853192 -0.000002 -0.000000 -0.000002 0.021770 -0.038291 0.012954 -0.000001 0.000000 -0.000002 -0.000001 -0.000001 0.000008 -0.000001 -0.000001 0.000001 -0.000003 0.000001 -0.000002 -0.009090 -0.002348 -0.024224 0.000000 -0.000001 0.000006 0.000001 0.000001 0.000005 -0.000001 -0.000001 0.000001 0.032823 -0.025104 0.012281 -0.000002 0.000000 0.000005 -0.000000 0.000002 0.000002 -0.000002 -0.000002 -0.000000 -0.000000 -0.000003 -0.000001 0.039230 -0.011402 0.008390 0.000001 -0.000000 0.000006 -0.000001 -0.000001 0.000003 0.000003 0.000005 -0.000001 0.000002 -0.000003 0.000004 0.043417 0.002450 0.002889 0.000000 0.000001 0.000003 -0.000001 -0.000004 -0.000005 0.000004 0.000004 0.000003 -0.000003 0.000001 0.000001 -0.016662 0.078957 0.057696 4.579062 2.574357 -27.274721 -0.176972 -0.020537 -0.095144 -7.954774 -12.351421 64.462048 1.999339 -0.021772 7.794808 -0.000001 0.000000 -0.000002 -0.021773 -0.038278 0.012988 -0.000001 -0.000002 -0.000005 -0.000001 0.000002 -0.000003 -0.000000 -0.000000 -0.000003 0.000000 -0.000003 0.000003 0.009113 -0.002381 -0.024211 0.000002 -0.000002 0.000002 -0.000002 -0.000002 -0.000001 -0.000000 -0.000001 -0.000001 -0.032828 -0.025095 0.012286 -0.000001 -0.000002 -0.000001 -0.000001 0.000000 -0.000001 0.000002 0.000002 -0.000002 -0.000000 0.000003 -0.000006 -0.039192 -0.011488 0.008390 0.000001 0.000001 -0.000004 -0.000000 0.000003 -0.000003 0.000002 -0.000001 0.000003 -0.000000 -0.000001 0.000001 -0.043421 0.002443 0.002845 -0.000002 -0.000002 0.000000 -0.000002 0.000004 -0.000002 -0.000004 0.000002 -0.000000 -0.000002 -0.000000 0.000001 -0.000000 0.000000 -0.000000 -1.531479 -0.149534 0.873291 -19.167070 -0.030703 1.067778 31.223462 0.081655 -0.821738 0.000002 -0.000001 0.000000 0.000002 -0.000000 -0.000001 0.000002 -0.000001 -0.000000 -0.038000 -0.085200 0.016200 -0.000001 -0.000000 -0.000001 -0.000000 0.000000 0.000000 -1.503071 -0.148812 2.107549 -17.436156 0.472583 4.521016 24.927913 -0.528296 5.338716 0.000000 -0.000001 0.000000 0.000002 0.000000 0.000000 0.000007 -0.000000 0.000000 0.038000 -0.085200 0.016200 -0.000001 0.000001 0.000000 
